Coordinates
version=1
nRows=8
nColumns=33
inDegrees=yes

Units are S.I. units (second, meters, Newtons, ...)
Angles are in degrees.

endheader
time	ground_thorax_rot_x	ground_thorax_rot_y	ground_thorax_rot_z	ground_thorax_tx	ground_thorax_ty	ground_thorax_tz	clav_prot_r	clav_elev_r	scapula_abduction_r	scapula_elevation_r	scapula_upward_rot_r	scapula_winging_r	shoulder_elv_r	plane_of_elev_r	axial_rot_r	elbow_flexion_r	pro_sup_r	wrist_flex_r	wrist_dev_r	clav_prot_l	clav_elev_l	scapula_abduction_l	scapula_elevation_l	scapula_upward_rot_l	scapula_winging_l	shoulder_elv_l	plane_of_elev_l	axial_rot_l	elbow_flexion_l	pro_sup_l	wrist_flex_l	wrist_dev_l
      6.97000000	     40.02758279	      7.07079573	      6.86718940	   -214.93667645	    844.81771818	      5.22008042	     13.81067603	     36.72922845	     38.27732917	     45.00000000	    -45.00000000	  -2965.05365290	  -4063.66467744	    142.62127375	    179.99999979	   1452.99134994	     47.72597248	     22.85616760	      8.05571101	      8.60337801	    -45.00000000	    -39.44623876	     45.00000000	    -45.00000000	    816.63884461	  -2970.00357367	    134.92189526	   -179.99999979	    731.53581955	   -323.28409844	      5.65129335	    -23.06923922
      6.98000000	     40.03618586	      6.96003839	      6.67447047	   -216.45481697	    845.62594375	      5.28763045	     13.74026815	     36.71560785	     38.17782206	     45.00000000	    -45.00000000	  -2965.07485126	  -4063.60917994	    142.67888905	    179.99999979	   1452.95041645	     48.07864910	     22.85094827	      7.93529844	      8.64045206	    -45.00000000	    -39.47673833	     45.00000000	    -45.00000000	    816.74577905	  -2969.98974751	    134.96658048	   -179.99999979	    731.57696217	   -322.33147550	      5.43661184	    -23.09000732
      6.99000000	     39.99024469	      6.82599066	      6.51390407	   -217.96545553	    846.41491350	      5.35650921	     13.67918775	     36.69274563	     38.07174218	     45.00000000	    -45.00000000	  -2965.04779623	  -4063.62159520	    142.71306153	    179.99999979	   1452.93707500	     48.44402151	     22.82226082	      7.77726478	      8.68277655	    -45.00000000	    -39.48101386	     45.00000000	    -45.00000000	    816.88346814	  -2970.01282197	    135.04660670	   -179.99999979	    731.59495765	   -321.34041233	      5.23785395	    -23.11829497
      7.00000000	     40.01708412	      6.71427360	      6.31633319	   -219.47212497	    847.18248629	      5.42718186	     13.65437136	     36.61288866	     37.94044761	     45.00000000	    -45.00000000	  -2965.11676773	  -4063.55520208	    142.69596586	    179.99999979	   1452.93624109	     48.84124922	     22.78321671	      7.61307251	      8.74293757	    -45.00000000	    -39.52757754	     45.00000000	    -45.00000000	    816.99935200	  -2970.02532636	    135.07762188	   -179.99999979	    731.61127674	   -320.29225454	      5.03429606	    -23.14295057
      7.01000000	     39.87678478	      6.45557869	      6.05457092	   -220.97950576	    847.92663993	      5.49997551	     13.50677257	     36.71146138	     37.87143423	     45.00000000	    -45.00000000	  -2964.98860687	  -4063.57918816	    142.69943638	    179.99999979	   1452.86151359	     49.24710098	     22.78132770	      7.48904849	      8.72730649	    -45.00000000	    -39.53924521	     45.00000000	    -45.00000000	    817.11619136	  -2969.90115991	    135.16828901	   -179.99999979	    731.57888224	   -319.30179011	      4.82914301	    -23.15394188
      7.02000000	     39.98654243	      6.38078620	      5.87930192	   -222.48835438	    848.64391245	      5.57493501	     13.54163998	     36.56109363	     37.69549449	     45.00000000	    -45.00000000	  -2965.12225087	  -4063.48185442	    142.67067018	    179.99999979	   1452.92891535	     49.67673458	     22.72382041	      7.30186759	      8.81238868	    -45.00000000	    -39.52440620	     45.00000000	    -45.00000000	    817.25466415	  -2970.04153068	    135.14870886	   -179.99999979	    731.68515573	   -318.23184510	      4.63420820	    -23.20113662
      7.03000000	     40.00012321	      6.28260649	      5.69580969	   -223.99842658	    849.33131941	      5.65171905	     13.49751946	     36.52200777	     37.56273808	     45.00000000	    -45.00000000	  -2965.15530240	  -4063.44713876	    142.69514352	    179.99999979	   1452.92670737	     50.15553434	     22.68167714	      7.13299198	      8.86694574	    -45.00000000	    -39.57216840	     45.00000000	    -45.00000000	    817.34278513	  -2970.10992992	    135.21982865	   -179.99999979	    731.69150310	   -317.07652223	      4.42867279	    -23.22558856
      7.04000000	     39.96989504	      6.12299459	      5.52049820	   -225.50521409	    849.98610794	      5.72929112	     13.40535593	     36.54596564	     37.46779672	     45.00000000	    -45.00000000	  -2965.12164166	  -4063.43714739	    142.73414501	    179.99999979	   1452.92850859	     50.64174882	     22.65913343	      6.98237527	      8.88285576	    -45.00000000	    -39.56609833	     45.00000000	    -45.00000000	    817.45848072	  -2970.12679371	    135.31078739	   -179.99999979	    731.72725153	   -315.95077697	      4.21142255	    -23.24128814
